# xmcd
#
# Track frame offsets:
#	150
#	18225
#	37419
#	58011
#	75579
#	93779
#	111740
#	132370
#	140845
#	157812
#	174800
#	194121
#	214947
#
# Disc length: 2951 seconds
#
# Revision: 0
# Processed by: cddbd v1.5.2PL0 Copyright (c) Steve Scherf et al.
# Submitted via: EasyCDDAExtractor 11.9.9.666
#
DISCID=bb0b850d
DTITLE=Tihana Plahcinski - Dodir milosti
DYEAR=2009
DGENRE=Gospel
TTITLE0=Mesija
TTITLE1=Podigni oci
TTITLE2=Dve najlepse reci sveta
TTITLE3=Oslonac
TTITLE4=Rame uz rame
TTITLE5=Marija
TTITLE6=Gospod je silan
TTITLE7=Dodir milosti
TTITLE8=Dobri Oce moj
TTITLE9=Mocna je rec
TTITLE10=Pomozi mi Boze
TTITLE11=Mozaik mog zivota
TTITLE12=Ovo govori Sveti
EXTD=
EXTT0=
EXTT1=
EXTT2=
EXTT3=
EXTT4=
EXTT5=
EXTT6=
EXTT7=
EXTT8=
EXTT9=
EXTT10=
EXTT11=
EXTT12=
PLAYORDER=
